<svg width="40" height="40" xmlns="http://www.w3.org/2000/svg" xmlns:xlink="http://www.w3.org/1999/xlink"><defs><path id="a" d="M0 .062h39.938v39.87H0z"/></defs><g fill="none" fill-rule="evenodd"><path d="M-10-10h60v60h-60z"/><g transform="translate(0 .006)"><mask id="b" fill="#fff"><use xlink:href="#a"/></mask><path d="M19.97 1.153c-10.41 0-18.877 8.453-18.877 18.844 0 10.39 8.467 18.844 18.876 18.844 10.408 0 18.876-8.454 18.876-18.844S30.377 1.153 19.97 1.153m0 38.778C8.958 39.931 0 30.99 0 19.997S8.958.062 19.97.062c11.01 0 19.968 8.943 19.968 19.935 0 10.992-8.958 19.934-19.969 19.934" fill="#FEFEFE" mask="url(#b)"/></g><path fill="#6BC1AE" d="M19.035 21.856L15.8 11.531 7.463 28.475H15.8z"/><path fill="#FEFEFE" d="M15.8 11.531h8.339l8.337 16.944H24.14z"/></g></svg>